<?xml version="1.0" encoding="UTF-8" standalone="no"?>
<svg width="100px" height="35px" viewBox="0 0 100 35" version="1.1" xmlns="http://www.w3.org/2000/svg" xmlns:xlink="http://www.w3.org/1999/xlink" xmlns:sketch="http://www.bohemiancoding.com/sketch/ns">
    <!-- Generator: Sketch 3.2.2 (9983) - http://www.bohemiancoding.com/sketch -->
    <title>grpc_white</title>
    <desc>Created with Sketch.</desc>
    <defs></defs>
    <g id="Page-1-Reverse" stroke="none" stroke-width="1" fill="none" fill-rule="evenodd" sketch:type="MSPage">
        <path d="M11.1692845,8.41160221 C11.1692845,7.02577576 11.4105367,5.80111029 11.8930484,4.73756906 C12.3755601,3.67402783 13.0108577,2.79581378 13.7989602,2.10290055 C14.5870627,1.40998733 15.4716542,0.886281699 16.4527614,0.531767956 C17.4338685,0.177254213 18.4230027,0 19.4201936,0 C20.4173845,0 21.4065187,0.177254213 22.3876258,0.531767956 C23.368733,0.886281699 24.2533245,1.40998733 25.041427,2.10290055 C25.8295295,2.79581378 26.4648271,3.67402783 26.9473388,4.73756906 C27.4298505,5.80111029 27.6711027,7.02577576 27.6711027,8.41160221 L27.6711027,10.1519337 L22.7495078,10.1519337 L22.7495078,8.41160221 C22.7495078,7.21914689 22.4197964,6.34093284 21.7603637,5.7769337 C21.1009311,5.21293456 20.3208821,4.93093923 19.4201936,4.93093923 C18.5195051,4.93093923 17.7394562,5.21293456 17.0800235,5.7769337 C16.4205908,6.34093284 16.0908794,7.21914689 16.0908794,8.41160221 L16.0908794,26.5883978 C16.0908794,27.7808531 16.4205908,28.6590672 17.0800235,29.2230663 C17.7394562,29.7870654 18.5195051,30.0690608 19.4201936,30.0690608 C20.3208821,30.0690608 21.1009311,29.7870654 21.7603637,29.2230663 C22.4197964,28.6590672 22.7495078,27.7808531 22.7495078,26.5883978 L22.749508,19.7738237 L18.8411826,19.7738237 L18.8523537,15.2212189 L27.6711027,15.2346685 L27.6711027,26.5883978 C27.6711027,28.0064528 27.4298505,29.2391752 26.9473388,30.2866022 C26.4648271,31.3340292 25.8295295,32.2041862 25.041427,32.8970994 C24.2533245,33.5900127 23.368733,34.1137183 22.3876258,34.468232 C21.4065187,34.8227458 20.4173845,35 19.4201936,35 C18.4230027,35 17.4338685,34.8227458 16.4527614,34.468232 C15.4716542,34.1137183 14.5870627,33.5900127 13.7989602,32.8970994 C13.0108577,32.2041862 12.3755601,31.3340292 11.8930484,30.2866022 C11.4105367,29.2391752 11.1692845,28.0064528 11.1692845,26.5883978 L11.1692845,8.41160221 Z M36.9352814,15.225 L39.7338354,15.225 C40.6023565,15.225 41.2939463,15.1090771 41.8086254,14.8772277 C42.3233046,14.6453783 42.7173499,14.3130658 42.9907732,13.8802803 C43.2641965,13.4474948 43.4491566,12.9142493 43.5456589,12.2805277 C43.6421613,11.646806 43.6904117,10.9126274 43.6904117,10.0779696 C43.6904117,9.24331186 43.6421613,8.50913319 43.5456589,7.87541156 C43.4491566,7.24168994 43.248113,6.70071618 42.9425223,6.25247406 C42.6369315,5.80423193 42.2107192,5.47191948 41.6638726,5.25552673 C41.117026,5.03913398 40.3932693,4.93093923 39.4925807,4.93093923 L36.9352814,4.93093923 L36.9352814,15.225 Z M32.0136865,0.290055249 L39.9268391,0.290055249 C45.7169797,0.290055249 48.6120066,3.65788529 48.6120066,10.3936464 C48.6120066,12.3918148 48.2983787,14.1079578 47.6711135,15.5421271 C47.0438483,16.9762963 45.9421297,18.1284487 44.3659247,18.9986188 L49.6735271,34.7099448 L44.4624266,34.7099448 L39.8007772,19.7587078 L36.9352814,19.7587078 L36.9352814,34.7099448 L32.0136865,34.7099448 L32.0136865,0.290055249 Z M52.5685829,0.290055249 L59.9509753,0.290055249 C61.3020081,0.290055249 62.4921859,0.467309461 63.5215442,0.821823204 C64.5509025,1.17633695 65.4837445,1.8047837 66.3200982,2.70718232 C67.1564518,3.60958094 67.7354572,4.66504921 68.0571317,5.87361878 C68.3788062,7.08218836 68.539641,8.71776133 68.539641,10.7803867 C68.539641,12.2951273 68.418167,13.3794196 68.241246,14.4590751 C68.0643251,15.5387306 67.4933229,17.4169361 65.2498696,18.6913322 C63.8467055,19.4884012 61.8327708,19.7751688 59.9992263,19.7751688 L57.4901779,19.7751688 L57.4901779,34.7099448 L52.5685829,34.7099448 L52.5685829,0.290055249 Z M57.4901779,15.225 L59.8544735,15.225 C60.8516644,15.225 61.6236715,15.097389 62.1705181,14.842163 C62.7173648,14.5869371 63.1194518,14.2395515 63.3767914,13.7999957 C63.634131,13.36044 63.7869241,12.8287273 63.8351753,12.2048417 C63.8834264,11.5809561 63.9075516,10.8861848 63.9075516,10.1205071 C63.9075516,9.41154616 63.8834264,8.73804341 63.8351753,8.0999786 C63.7869241,7.46191379 63.6421727,6.90893258 63.4009169,6.44101839 C63.159661,5.9731042 62.7816992,5.60445006 62.26702,5.33504492 C61.7523408,5.06563978 61.0125006,4.93093923 60.0474772,4.93093923 L57.4901779,4.93093923 L57.4901779,15.225 Z M98.4032281,24.85 L100,24.85 L96.1605585,30.275 L92.3211169,24.85 L93.8657063,24.85 L93.8657063,19.775 L82.8970336,19.775 L82.8970336,15.225 L96.1344672,15.225 C97.3874693,15.225 98.4032281,16.2435522 98.4032281,17.5 L98.4032281,24.85 Z M1.59677189,10.15 L0,10.15 L3.83944154,4.725 L7.67888307,10.15 L6.1342937,10.15 L6.1342937,15.225 L11.1713298,15.225 L11.1713298,19.775 L3.86553279,19.775 C2.61253075,19.775 1.59677189,18.7564478 1.59677189,17.5 L1.59677189,10.15 L1.59677189,10.15 Z M87.8400132,27.0234807 C87.8400132,28.0870219 87.6389697,29.1022051 87.2368766,30.0690608 C86.8347835,31.0359164 86.2799034,31.8819025 85.5722195,32.6070442 C84.8645356,33.3321859 84.0362363,33.9122906 83.0872966,34.3473757 C82.1383569,34.7824607 81.1170557,35 80.0233625,35 C79.0905065,35 78.141581,34.8710878 77.1765576,34.6132597 C76.2115341,34.3554315 75.3430261,33.912296 74.5710073,33.2838398 C73.7989886,32.6553836 73.163691,31.8255116 72.6650956,30.7941989 C72.1665001,29.7628862 71.9172061,28.4576506 71.9172061,26.878453 L71.9172061,7.9281768 C71.9172061,6.80017852 72.1102079,5.75276727 72.4962173,4.7859116 C72.8822267,3.81905594 73.4290651,2.98112693 74.1367489,2.27209945 C74.8444328,1.56307196 75.6888156,1.00713829 76.6699228,0.604281768 C77.65103,0.201425242 78.736665,0 79.9268606,0 C81.0527213,0 82.0981477,0.201425242 83.0631711,0.604281768 C84.0281945,1.00713829 84.8645356,1.57112897 85.5722195,2.29627072 C86.2799034,3.02141247 86.8347835,3.89156951 87.2368766,4.90676796 C87.6389697,5.9219664 87.8400132,7.02577673 87.8400132,8.21823204 L87.8400132,10.1519337 L82.9184183,10.1519337 L82.9184183,8.50828729 C82.9184183,7.54143163 82.6449991,6.70350262 82.0981525,5.99447514 C81.5513059,5.28544765 80.8114657,4.93093923 79.8786097,4.93093923 C78.6562467,4.93093923 77.8440308,5.30961868 77.4419377,6.06698895 C77.0398446,6.82435922 76.8388011,7.78314337 76.8388011,8.94337017 L76.8388011,26.5400552 C76.8388011,27.5391394 77.0559281,28.3770684 77.4901886,29.0538674 C77.9244492,29.7306664 78.7044981,30.0690608 79.8303588,30.0690608 C80.1520332,30.0690608 80.4978281,30.0126617 80.8677538,29.8998619 C81.2376794,29.7870621 81.5754326,29.6017508 81.8810233,29.3439227 C82.1866141,29.0860945 82.435908,28.731586 82.6289127,28.2803867 C82.8219174,27.8291874 82.9184183,27.2651968 82.9184183,26.5883978 L82.9184183,24.8964088 L87.8400132,24.8964088 L87.8400132,27.0234807 Z" id="grpc_white" fill="#FFFFFF" sketch:type="MSShapeGroup"></path>
    </g>
</svg>